<svg xmlns="http://www.w3.org/2000/svg" width="23" height="25" viewBox="0 0 23 25">
    <path fill="#d5d5d5" fill-rule="evenodd" d="M68.2 38.423l.011.015a1 1 0 0 1 .4.8 1.069 1.069 0 0 1-1.095 1.042h-6.21a2.138 2.138 0 0 0-2.19 2.083v4.021a1.073 1.073 0 0 0 1.095 1.042 1.112 1.112 0 0 0 .832-.365c.038-.042.17-.172.2-.2a3.363 3.363 0 0 1 2.255-.854 3.129 3.129 0 1 1 0 6.25 3.386 3.386 0 0 1-2.267-.86 2.287 2.287 0 0 1-.186-.187 1.133 1.133 0 0 0-.842-.37 1.073 1.073 0 0 0-1.095 1.042l.011 2.979a2.138 2.138 0 0 0 2.19 2.083h18.61a2.138 2.138 0 0 0 2.189-2.083v-4.537a1.073 1.073 0 0 0-1.095-1.042 1.12 1.12 0 0 0-.788.318l-.214.219a3.35 3.35 0 0 1-2.283.88 3.129 3.129 0 1 1 0-6.25 3.358 3.358 0 0 1 2.288.886l.17.172a1.127 1.127 0 0 0 .826.359 1.073 1.073 0 0 0 1.095-1.041v-2.459a2.138 2.138 0 0 0-2.189-2.083H73.7a1.073 1.073 0 0 1-1.1-1.042 1.019 1.019 0 0 1 .334-.75 3.575 3.575 0 0 0 1.505-2.9 3.836 3.836 0 0 0-7.663 0 3.571 3.571 0 0 0 1.424 2.832z" transform="translate(-59.106 -31.949)"/>
</svg>
