<svg xmlns="http://www.w3.org/2000/svg" width="12.011" height="14.977" viewBox="0 0 12.011 14.977">
    <g>
        <g>
            <path fill="#346aff" d="M14.593 3.554H8.857V.38A.38.38 0 0 0 8.65.043a.389.389 0 0 0-.4.026L.163 5.694a.378.378 0 0 0 0 .622l8.088 5.625a.388.388 0 0 0 .4.026.38.38 0 0 0 .207-.337V8.456h5.736a.382.382 0 0 0 .384-.38V3.934a.382.382 0 0 0-.385-.38zM14.208 7.7H8.473a.382.382 0 0 0-.384.38v2.82L1.053 6.005l7.035-4.893v2.822a.382.382 0 0 0 .384.38h5.736z" transform="rotate(-90 7.489 7.489) rotate(180 7.489 6.006)"/>
        </g>
    </g>
</svg>
