<svg xmlns="http://www.w3.org/2000/svg" width="16.646" height="16.646" viewBox="0 0 16.646 16.646">
    <path fill="#346aff" d="M9.323 1a8.319 8.319 0 0 0-5.549 14.52v.006l.121.1c.021.018.044.034.066.052q.224.189.462.363l.129.092q.252.177.516.336l.089.051c.193.112.39.218.593.315h.006a8.267 8.267 0 0 0 1.358.5l.026.007q.333.091.678.154l.064.011c.221.039.445.07.672.091l.078.006c.229.019.459.031.692.031s.464-.012.692-.031l.078-.006c.227-.021.451-.052.672-.091l.064-.011q.344-.063.678-.154l.026-.007a8.267 8.267 0 0 0 1.358-.5h.006c.2-.1.4-.2.593-.315l.089-.051c.177-.105.348-.218.516-.336l.129-.092q.237-.174.462-.363c.022-.018.045-.033.066-.052l.121-.1v-.006A8.319 8.319 0 0 0 9.323 1zm0 8.323A2.774 2.774 0 1 1 12.1 6.549a2.778 2.778 0 0 1-2.777 2.774zm1.04.694a3.819 3.819 0 0 1 3.815 3.815V15.2l-.044.035q-.205.167-.421.318l-.1.068c-.155.106-.314.2-.476.3l-.089.051c-.17.1-.343.185-.52.267l-.056.025a7.634 7.634 0 0 1-1.808.564l-.059.011q-.295.05-.595.078l-.083.006c-.2.016-.405.026-.61.026s-.407-.01-.61-.027l-.083-.006q-.3-.028-.595-.078l-.059-.011a7.634 7.634 0 0 1-1.808-.564l-.056-.025c-.177-.082-.35-.171-.52-.267l-.086-.047c-.162-.094-.321-.193-.476-.3-.032-.022-.063-.045-.1-.068-.144-.1-.284-.207-.421-.318l-.035-.038v-1.368a3.819 3.819 0 0 1 3.815-3.815zm4.508 4.535v-.72a4.517 4.517 0 0 0-3.6-4.417 3.468 3.468 0 1 0-3.9 0 4.517 4.517 0 0 0-3.6 4.417v.72a7.63 7.63 0 1 1 11.1 0z" transform="translate(-1 -1)"/>
</svg>
