<svg xmlns="http://www.w3.org/2000/svg" width="21.924" height="21.924" viewBox="0 0 21.924 21.924">
    <path fill="#d8d8d8" d="M58.962 48h-.026a10.962 10.962 0 0 0 0 21.924h.026a10.962 10.962 0 0 0 0-21.924zm.437 6.561a16.251 16.251 0 0 0 3.383-.448 19.669 19.669 0 0 1 .564 4.416H59.4zm0-.88v-4.732c1.181.327 2.382 1.9 3.141 4.322a15.39 15.39 0 0 1-3.14.41zm-.875-4.743v4.748a15.239 15.239 0 0 1-3.167-.422c.77-2.434 1.976-4.02 3.167-4.326zm0 5.623v3.963h-3.973a19.669 19.669 0 0 1 .564-4.416 16.5 16.5 0 0 0 3.409.453zm-4.859 3.963h-4.774a10.02 10.02 0 0 1 2.282-5.955 15.936 15.936 0 0 0 3.1 1.307 20.676 20.676 0 0 0-.608 4.648zm0 .875a20.427 20.427 0 0 0 .6 4.648 16.411 16.411 0 0 0-3.1 1.307 10.054 10.054 0 0 1-2.28-5.954zm.885 0h3.974v3.958a16.158 16.158 0 0 0-3.41.458 19.669 19.669 0 0 1-.563-4.415zm3.974 4.838v4.754c-1.191-.311-2.4-1.892-3.167-4.327a14.894 14.894 0 0 1 3.167-.427zm.875 4.738v-4.743a15.492 15.492 0 0 1 3.146.416c-.764 2.425-1.96 4-3.145 4.327zm0-5.618V59.4h3.947a19.661 19.661 0 0 1-.564 4.411 16.254 16.254 0 0 0-3.382-.454zm4.828-3.957h4.806a10.033 10.033 0 0 1-2.282 5.955 16.207 16.207 0 0 0-3.125-1.318 20.332 20.332 0 0 0 .601-4.637zm0-.875a20.687 20.687 0 0 0-.6-4.643 16.334 16.334 0 0 0 3.12-1.312 10.022 10.022 0 0 1 2.282 5.961h-4.802zm1.924-6.63a15.242 15.242 0 0 1-2.756 1.138 9.859 9.859 0 0 0-2.082-3.879 10.136 10.136 0 0 1 4.837 2.741zm-9.571-2.73a9.749 9.749 0 0 0-2.071 3.863 14.973 14.973 0 0 1-2.73-1.133 10.021 10.021 0 0 1 4.801-2.73zm-4.807 16.859a15.128 15.128 0 0 1 2.73-1.133 9.844 9.844 0 0 0 2.076 3.868 10.028 10.028 0 0 1-4.806-2.735zm9.539 2.746a9.85 9.85 0 0 0 2.088-3.884 15.242 15.242 0 0 1 2.756 1.138 10.119 10.119 0 0 1-4.844 2.746z" transform="translate(-48 -48)"/>
</svg>
